# xmcd
#
# Track frame offsets: 
#        150
#        16462
#        32212
#        47025
#        60300
#        73687
#        87037
#        100500
#        112125
#        126112
#        141450
#        154912
#        168712
#        182962
#        195937
#        208425
#
# Disc length: 2968 seconds
#
# Revision: 2
# Processed by: cddbd v1.5PL3 Copyright (c) Steve Scherf et al.
# Submitted via: ExactAudioCopy v0.90b4
#
DISCID=e90b9610
DTITLE=The Carter Family - When The Roses Bloom In Dixieland (1929-193
DTITLE=0)
DYEAR=1900
DGENRE=Country
TTITLE0=Motherless Children
TTITLE1=When The Roses Bloom In Dixieland
TTITLE2=No Telephone In Heaven
TTITLE3=The Western Hobo
TTITLE4=Carter's Blues
TTITLE5=Wabash Cannonball
TTITLE6=A Distant Land To Roam
TTITLE7=Jimmy Brown The Newsboy
TTITLE8=Kitty Waltz
TTITLE9=Fond Affection
TTITLE10=The Cannonball
TTITLE11=Lover's Farewell
TTITLE12=There's Someone Awaiting For Me
TTITLE13=Little Log Hut In The Lane
TTITLE14=When The Springtime Comes Again
TTITLE15=When The World's On Fire
EXTD=
EXTT0=
EXTT1=
EXTT2=
EXTT3=
EXTT4=
EXTT5=
EXTT6=
EXTT7=
EXTT8=
EXTT9=
EXTT10=
EXTT11=
EXTT12=
EXTT13=
EXTT14=
EXTT15=
PLAYORDER=
